<svg height="460pt" viewBox="-9 0 460 460.10284" width="460pt" xmlns="http://www.w3.org/2000/svg" xmlns:xlink="http://www.w3.org/1999/xlink"><linearGradient id="a"><stop offset="0" stop-color="#00efd1"/><stop offset="1" stop-color="#00acea"/></linearGradient><linearGradient id="b" gradientUnits="userSpaceOnUse" x1="91.72142" x2="91.72142" xlink:href="#a" y1="3.870389" y2="439.751389"/><linearGradient id="c" gradientUnits="userSpaceOnUse" x1="92.71942" x2="92.71942" xlink:href="#a" y1="3.870389" y2="439.751389"/><linearGradient id="d" gradientUnits="userSpaceOnUse" x1="310.22142" x2="310.22142" xlink:href="#a" y1="3.870389" y2="439.751389"/><path d="m91.722656 98.449219c22.890625-.023438 41.449219-18.5625 41.5-41.453125v-13.785156c0-22.917969-18.582031-41.5-41.5-41.5-22.921875 0-41.5 18.582031-41.5 41.5v13.785156c.046875 22.890625 18.605469 41.429687 41.5 41.453125zm-27.5-55.238281c-.007812-7.226563 2.875-14.160157 8.007813-19.253907 5.132812-5.089843 12.089843-7.917969 19.316406-7.855469h.113281c7.253906-.074218 14.238282 2.746094 19.410156 7.832032 5.171876 5.085937 8.105469 12.023437 8.152344 19.277344v13.785156c0 15.1875-12.3125 27.5-27.5 27.5s-27.5-12.3125-27.5-27.5zm0 0" fill="url(#b)"/><path d="m185.222656 146.277344c1.988282-23.433594-15.078125-44.175782-38.453125-46.742188-1.429687-.144531-2.929687-.433594-4.359375-.433594h-18.144531c-1.800781.082032-3.511719.835938-4.789063 2.113282l-26.761718 25.21875-25.726563-25.1875c-1.292969-1.316406-3.039062-2.082032-4.882812-2.144532h-19.253907c-23.675781.210938-42.7656245 19.441407-42.8007808 43.117188 0 1.3125.1757808 2.746094.1757808 4.054688v105.570312c-.007812 14.410156 11.601563 26.132812 26.011719 26.257812h.011719l.289062-.132812c4.707032-.074219 9.300782-1.457031 13.269532-3.992188l4.726562 158.917969c.402344 11.265625 7.625 21.148438 18.230469 24.964844 10.609375 3.8125 22.46875.785156 29.957031-7.644531 7.496094 8.433594 19.371094 11.449218 29.984375 7.617187s17.820313-13.738281 18.203125-25.015625l4.710938-158.671875c8.0625 4.820313 18.09375 4.953125 26.277344.339844 8.1875-4.613281 13.269531-13.257813 13.324218-22.65625zm-58.429687 286.113281c-.304688 7.34375-6.371094 13.128906-13.71875 13.078125-7.558594.007812-13.726563-6.046875-13.851563-13.601562v-155.648438c0-3.867188-3.136718-7-7-7-3.867187 0-7 3.132812-7 7v155.648438c.15625 7.40625-5.71875 13.535156-13.125 13.695312-7.40625.15625-13.539062-5.71875-13.695312-13.125l-5.296875-182.335938h79.230469zm44.429687-286.453125v105.890625c0 6.628906-5.375 12-12 12-6.628906 0-12-5.371094-12-12v-23.0625l.109375-3.675781c.011719-.5-.109375-.984375-.109375-1.457032v-42.679687c0-3.867187-3.136718-7-7-7-3.867187 0-7 3.132813-7 7v47.597656l-.472656 7.550781h-80.058594l-.347656-11.394531c-.011719-.339843-.121094-.707031-.121094-1.03125v-42.722656c0-3.867187-3.136718-7-7-7-3.867187 0-7 3.132813-7 7v70.355469c0 6.835937-5.300781 12.796875-11.8125 12.796875h-.167968c-3.203126-.039063-6.257813-1.347657-8.492188-3.640625-2.269531-2.296875-3.535156-5.394532-3.527344-8.621094v-105.898438c0-.238281-.007812-.472656-.027344-.707031-.832031-8.148437 1.800782-16.265625 7.25-22.378906 5.453126-6.109375 13.21875-9.652344 21.40625-9.757813h16.410157l28.484375 27.925782c.042968.039062.089844.183594.132812.222656.101563.09375.199219.234375.300782.320312.078124.066407.15625.152344.238281.214844.105469.082032.214843.171875.324219.246094.085937.054688.167968.113281.253906.167969.113281.066406.222656.132812.335937.195312.089844.046875.183594.09375.273438.140625.113281.050782.226562.105469.34375.152344.097656.039062.191406.078125.289062.113281.113281.039063.230469.078125.347657.117188.097656.027343.199218.054687.300781.082031.117187.03125.234375.058594.355469.082031.097656.019531.199218.039063.296874.050781.121094.019532.242188.035157.367188.050782.097656.007812.199219.015625.296875.023437.125.007813.25.011719.375.011719h.292969c.128906 0 .253906-.011719.382812-.023438.09375-.007812.1875-.019531.28125-.03125.128906-.019531.257813-.039062.386719-.0625.089844-.015624.183594-.039062.277344-.058593.125-.027344.25-.0625.378906-.097657.089844-.027343.179687-.058593.273437-.089843.121094-.039063.242188-.082031.363282-.132813.089844-.035156.183594-.074218.277344-.117187.113281-.050781.226562-.105469.339843-.160157.09375-.050781.183594-.101562.277344-.15625.089844-.050781.210937-.125.3125-.191406.105469-.066406.1875-.125.277344-.1875.089843-.066406.199219-.144531.292969-.222656s.175781-.144531.261718-.222656c.050782-.042969.105469-.296875.15625-.347656l29.628906-28.015626h15.371094c.972656.074219 1.9375.195313 2.898438.363282 15.878906 1.695312 27.417968 15.878906 25.847656 31.765625.007812.238281.03125.472656.066406.707031zm0 0" fill="url(#c)"/><path d="m436.613281 9.378906-34.882812-6.632812c-27.632813-5.25-56.171875-2.945313-82.609375 6.667968-24.941406 9.078126-51.925782 10.996094-77.898438 5.535157l-26.414062-5.546875c-2.089844-.433594-4.257813.085937-5.925782 1.417968-1.65625 1.320313-2.632812 3.316407-2.660156 5.433594v401.847656h-21.441406c-1.761719-.09375-3.476562.5625-4.726562 1.800782-1.25 1.242187-1.914063 2.953125-1.832032 4.710937v28.59375c0 3.867188 2.691406 6.894531 6.558594 6.894531h90.515625c1.839844.023438 3.605469-.695312 4.910156-1.992187 1.300781-1.296875 2.027344-3.0625 2.015625-4.902344v-28.59375c0-3.867187-3.058594-6.511719-6.925781-6.511719h-22.074219v-240.898437c5.65625.59375 11.34375.898437 17.03125.914063 18.261719-.003907 36.386719-3.191407 53.550782-9.421876 24.097656-8.753906 50.109374-10.847656 75.300781-6.070312l34.949219 6.632812c2.027343.386719 4.121093-.160156 5.703124-1.484374 1.585938-1.339844 2.492188-3.320313 2.464844-5.398438v-146.121094c.035156-3.34375-2.324218-6.238281-5.609375-6.875zm-216.390625 161.625 17.8125 3.769532c.449219.097656 1.1875.175781 1.1875.269531v243.058593h-19zm48 261.097656v14h-76v-14zm160-278.179687-26.53125-5.054687c-27.628906-5.25-56.164062-2.945313-82.59375 6.667968-24.964844 9.078125-51.96875 10.996094-77.96875 5.535156l-20.90625-4.378906v-131.816406l18.054688 3.773438c28.542968 6 58.199218 3.894531 85.609375-6.078126 24.054687-8.75 50.023437-10.847656 75.171875-6.066406l29.164062 5.546875zm0 0" fill="url(#d)"/></svg>