<svg height="501pt" viewBox="-80 1 501 501.99459" width="501pt" xmlns="http://www.w3.org/2000/svg" xmlns:xlink="http://www.w3.org/1999/xlink"><linearGradient id="a"><stop offset="0" stop-color="#00efd1"/><stop offset="1" stop-color="#00acea"/></linearGradient><linearGradient id="b" gradientUnits="userSpaceOnUse" x1="137.159397" x2="137.159397" xlink:href="#a" y1="17.994588" y2="484.175588"/><linearGradient id="c" gradientUnits="userSpaceOnUse" x1="202.561397" x2="202.561397" xlink:href="#a" y1="17.994588" y2="484.175588"/><linearGradient id="d" gradientUnits="userSpaceOnUse" x1="171.495397" x2="171.495397" xlink:href="#a" y1="17.994588" y2="484.175588"/><path d="m150.238281 128.261719c-4.417969 0-8 3.582031-8 8 .027344 1.832031-.9375 3.535156-2.519531 4.457031-1.582031.925781-3.539062.925781-5.121094 0-1.582031-.921875-2.546875-2.625-2.519531-4.457031 0-4.417969-3.582031-8-8-8s-8 3.582031-8 8c-.050781 7.566406 3.953125 14.578125 10.5 18.375 6.542969 3.800781 14.621094 3.800781 21.164063 0 6.542968-3.796875 10.550781-10.808594 10.496093-18.375 0-4.417969-3.582031-8-8-8zm0 0" fill="url(#b)"/><path d="m202.5625 157.339844c11.636719-.011719 21.066406-9.441406 21.078125-21.078125 0-4.417969-3.578125-8-8-8-4.417969 0-8 3.582031-8 8 0 2.804687-2.273437 5.078125-5.078125 5.078125-2.808594 0-5.082031-2.273438-5.082031-5.078125 0-4.417969-3.582031-8-8-8s-8 3.582031-8 8c.011719 11.636719 9.445312 21.066406 21.082031 21.078125zm0 0" fill="url(#c)"/><path d="m339.726562 246.738281c-1.8125-1.519531-4.21875-2.136719-6.539062-1.683593l-30.921875 5.898437c-10.816406-18.503906-30.617187-29.898437-52.050781-29.957031h-29.71875v-15.183594c3-2.519531 6.367187-5.300781 9.320312-8.324219 15.839844-16.164062 24.703125-37.898437 24.679688-60.527343v-27.710938c6.335937 1.839844 13.015625 2.1875 19.511718 1.015625 15.265626-2.53125 27.976563-13.109375 33.234376-27.664063 5.257812-14.554687 2.242187-30.816406-7.882813-42.519531s-25.78125-17.023437-40.941406-13.917969c-7.25 1.402344-14.042969 4.582032-19.761719 9.257813-21.332031-29.929687-59.578125-42.617187-94.570312-31.375-34.992188 11.246094-58.6875 43.835937-58.589844 80.589844v52.324219c-.039063 22.625 8.8125 44.363281 24.644531 60.527343 3.855469 3.960938 7.355469 7.484375 12.355469 10.566407v12.941406h-29.71875c-21.4375.070312-41.242188 11.460937-52.082032 29.957031l-30.957031-5.949219c-2.304687-.445312-4.6875.183594-6.472656 1.707032-1.804687 1.546874-2.820313 3.820312-2.765625 6.199218v209.429688c-.0625 3.804687 2.601562 7.109375 6.335938 7.855468l163.210937 31.652344c.492187.097656.988281.148438 1.488281.148438.503906-.003906 1.007813-.050782 1.5-.148438l163.132813-31.652344c3.730469-.746093 6.394531-4.050781 6.328125-7.855468v-209.429688c.054687-2.371094-.964844-4.636718-2.769532-6.171875zm-54.476562 7.519531-105.753906 20.605469v-15.117187l35.273437-22.75h35.445313c13.710937.050781 26.636718 6.417968 35.035156 17.261718zm-23.753906-212.394531c7.058594-1.484375 14.417968-.015625 20.367187 4.066407 11.570313 8.058593 14.960938 23.679687 7.773438 35.8125-7.183594 12.132812-22.511719 16.664062-35.140625 10.394531v-7.5c.007812-12.105469-2.597656-24.070313-7.636719-35.078125 4.023437-3.9375 9.109375-6.613282 14.636719-7.695313zm-23.007813 42.007813c-7.769531-7.027344-13.539062-15.992188-16.722656-25.976563-.789063-3.160156-3.417969-5.527343-6.644531-5.980469-3.226563-.453124-6.40625 1.09375-8.039063 3.914063-13.453125 23.242187-35.941406 36.332031-67.113281 38.917969-12.859375.96875-25.792969.269531-38.472656-2.082032v-8.027343c-.042969-5.222657.511718-10.433594 1.65625-15.53125 6.011718 1.027343 12.105468 1.539062 18.207031 1.535156 5.027344.003906 10.050781-.351563 15.027344-1.058594 19.90625-2.84375 47.339843-12.902343 68.300781-44.070312 20.703125 12.195312 33.523438 34.332031 33.796875 58.359375zm-68.628906-67.875c6.742187-.003906 13.449219.992187 19.902344 2.949218-13.964844 19.648438-32.445313 31.3125-55.058594 34.707032-8.660156 1.269531-17.453125 1.308594-26.125.113281 11.667969-23.140625 35.367187-37.746094 61.28125-37.769531zm-68.363281 120.964844v-28.035157c9.011718 1.539063 18.140625 2.300781 27.285156 2.277344 3.847656 0 7.804688-.140625 11.941406-.46875 30.601563-2.429687 55.039063-14.253906 71.625-34.4375 6.210938 11.226563 15.21875 20.660156 26.148438 27.382813v33.28125c.003906 18.464843-7.242188 36.1875-20.175782 49.363281-12.652343 13.230469-30.152343 20.734375-48.460937 20.78125-18.207031 0-35.277344-7.382813-48.324219-20.78125-12.898437-13.1875-20.09375-30.917969-20.039062-49.363281zm68.464844 86.144531c11.925781-.023438 23.707031-2.617188 34.535156-7.609375v9.328125l-32.910156 21.054687-33.089844-21.070312v-7.964844c9.976562 4.128906 20.667968 6.257812 31.464844 6.261719zm-77.183594 13.890625h35.25l35.46875 22.761718v15.105469l-105.75-20.605469c8.398437-10.835937 21.320312-17.203124 35.03125-17.261718zm-76.28125 101h14.332031c3.105469-.074219 6.105469 1.121094 8.308594 3.3125 2.199219 2.1875 3.414062 5.179687 3.359375 8.285156v23.667969c.0625 3.117187-1.148438 6.128906-3.347656 8.339843-2.199219 2.210938-5.199219 3.4375-8.320313 3.394532h-14.332031zm0 63h14.332031c7.363281.039062 14.429687-2.875 19.628906-8.085938 5.199219-5.210937 8.09375-12.289062 8.039063-19.648437v-23.667969c.050781-7.347656-2.851563-14.40625-8.050782-19.597656-5.203124-5.1875-12.269531-8.070313-19.617187-8h-14.332031v-59.386719l128 24.816406v193.132813l-128-24.816406zm155 84.847656-11-2.183594v-193.132812l9.609375 1.890625c.9375.195312 1.90625.195312 2.847656 0l9.542969-1.890625v193.132812zm27-5.285156v-193.132813l98.980468-19.164062c.152344.011719.375.035156.53125.035156 1.128907 0 2.246094-.234375 3.28125-.691406.066407-.03125 0-.066407.066407-.101563l25.140625-4.898437v59.390625h-13.953125c-7.386719-.085938-14.5 2.78125-19.765625 7.960937-5.265625 5.183594-8.246094 12.25-8.28125 19.636719v23.667969c.03125 7.402343 3.003906 14.484375 8.265625 19.6875 5.265625 5.203125 12.382812 8.097656 19.78125 8.046875h13.953125v54.746094zm128-142.5625v47h-13.953125c-3.15625.054687-6.207031-1.152344-8.472657-3.355469-2.261718-2.203125-3.550781-5.222656-3.574218-8.378906v-23.667969c.03125-3.144531 1.324218-6.144531 3.589844-8.328125 2.265624-2.179687 5.3125-3.359375 8.457031-3.269531zm0 0" fill="url(#d)"/></svg>