<svg height="484pt" viewBox="0 -5 484.16254 484" width="484pt" xmlns="http://www.w3.org/2000/svg" xmlns:xlink="http://www.w3.org/1999/xlink"><linearGradient id="lg1"><stop offset="0" stop-color="#00efd1"/><stop offset="1" stop-color="#00acea"/></linearGradient><linearGradient id="linear0" gradientUnits="userSpaceOnUse" x1="66.662138" x2="66.662138" xlink:href="#lg1" y1="-1.15173" y2="461.51727"/><linearGradient id="linear1" gradientUnits="userSpaceOnUse" x1="242.082138" x2="242.082138" xlink:href="#lg1" y1="-1.15173" y2="461.51727"/><path d="m66.664062 123.121094c21.792969-.023438 39.460938-17.675782 39.5-39.472656v-13.386719c0-21.816407-17.6875-39.5-39.5-39.5-21.816406 0-39.5 17.683593-39.5 39.5v13.386719c.035157 21.796874 17.703126 39.449218 39.5 39.472656zm-27.5-52.859375c0-15.148438 12.511719-27.179688 27.660157-27.179688h-.0625c7.246093-.054687 14.210937 2.785157 19.355469 7.886719 5.144531 5.101562 8.039062 12.046875 8.046874 19.292969v13.386719c0 15.191406-12.3125 27.5-27.5 27.5-15.191406 0-27.5-12.308594-27.5-27.5zm0 0" fill="url(#linear0)"/><path d="m459.628906.0820312h-315.226562c-13.617188 0-24.238282 11.3007808-24.238282 24.9179688v19.679688c-.085937 6.46875 2.4375 12.699218 6.996094 17.289062s10.773438 7.152344 17.242188 7.113281h2.761718v57h-48.242187c-1.667969-.058593-3.285156.601563-4.4375 1.808594l-9.4375 10.300781c-4.34375 4.75-10.519531 7.410156-16.957031 7.296875-6.4375-.109375-12.519532-2.976562-16.699219-7.875l-8.300781-9.566406c-1.15625-1.296875-2.824219-2.015625-4.5625-1.964844h-17.851563c-5.722656-.070312-11.214843 2.265625-15.132812 6.4375-3.921875 4.171875-5.910157 9.796875-5.4882815 15.503907l1.5468745 21.25 20.660157 279.648437c.433593 10.761719 7.460937 20.140625 17.664062 23.585937 10.207031 3.445313 21.480469.238282 28.347657-8.058593 6.871093 8.292969 18.144531 11.492187 28.347656 8.042969 10.203125-3.445313 17.226562-12.828126 17.660156-23.589844l19.664062-266.117188c.265626-4.476562 3.945313-7.988281 8.433594-8.035156l4.785156-.015625v64.207031c0 23.925782 19.847657 43.140625 43.773438 43.140625h97.460938l-65.046876 71.269531c-2.234374 2.472657-2.066406 6.28125.378907 8.542969 1.164062 1.085938 2.714843 1.660157 4.308593 1.597657 1.589844-.0625 3.089844-.757813 4.167969-1.929688l69.808594-76.34375 69.804687 76.355469c2.238282 2.445312 6.03125 2.617187 8.480469.382812 2.441407-2.289062 2.609375-6.109375.378907-8.601562l-65.050782-71.273438h97.464844c11.445312.03125 22.425781-4.507812 30.511719-12.605469 8.085937-8.101562 12.605469-19.089843 12.558593-30.535156v-169.859375h3.464844c6.496094.050781 12.75-2.5 17.355469-7.082031 4.609375-4.582031 7.195313-10.820312 7.179687-17.320312v-19.679688c.074219-13.644531-10.890624-24.785156-24.535156-24.9179688zm-411.429687 461.7773438c-7.546875.023437-13.742188-5.964844-13.976563-13.511719 0-.074218.007813-.296875 0-.378906l-13.117187-177.886719h41.058593v177.761719c.015626 7.726562-6.234374 14-13.964843 14.015625zm54.109375-13.890625c-.007813.078125-.011719.230469-.011719.300781-.296875 7.636719-6.632813 13.644531-14.277344 13.527344-7.640625-.117187-13.792969-6.3125-13.855469-13.953125v-177.761719h41.277344zm40-285.21875c-10.730469.019531-19.640625 8.296875-20.441406 19l-5.539063 76.332031h-96.109375l-6.652344-89.875-1.542968-21.199219c-.183594-2.347656.65625-4.660156 2.300781-6.34375 1.65625-1.726562 3.964843-2.664062 6.351562-2.582031h15.085938l6.5 7.457031c6.449219 7.464844 15.777343 11.824219 25.640625 11.984376 9.863281.160156 19.328125-3.894532 26.015625-11.144532l7.652343-8.300781h121.59375v24.398437zm301.855468 76.191406c.050782 8.261719-3.203124 16.203125-9.039062 22.054688-5.835938 5.847656-13.769531 9.121094-22.03125 9.085937h-222.15625c-17.308594 0-31.773438-13.832031-31.773438-31.140625v-64.246094l70.046876-.230468c3.300781-.011719 5.964843-2.699219 5.953124-6v-34.71875c1-.730469.585938-1.34375.550782-2.082032-.03125-1.566406-.707032-3.046874-1.859375-4.101562-1.15625-1.050781-2.691407-1.589844-4.25-1.480469h-70.441407v-57h285zm29-194.558594c0 7.011719-5.6875 12.699219-12.703124 12.699219h-315.597657c-7.015625 0-12.699219-5.6875-12.699219-12.699219v-19.601562c0-7.015625 5.683594-12.699219 12.699219-12.699219h315.597657c7.015624 0 12.703124 5.683594 12.703124 12.699219zm0 0" fill="url(#linear1)"/></svg>